Coordinates
version=1
nRows=5
nColumns=42
inDegrees=yes

Units are S.I. units (second, meters, Newtons, ...)
If the header above contains a line with 'inDegrees', this indicates whether rotational values are in degrees (yes) or radians (no).

endheader
time	pelvis_tilt	pelvis_list	pelvis_rotation	pelvis_tx	pelvis_ty	pelvis_tz	hip_flexion_r	hip_adduction_r	hip_rotation_r	knee_angle_r	knee_adduction_r	knee_angle_r_beta	ankle_angle_r	subtalar_angle_r	mtp_angle_r	hip_flexion_l	hip_adduction_l	hip_rotation_l	knee_angle_l	knee_adduction_l	knee_angle_l_beta	ankle_angle_l	subtalar_angle_l	mtp_angle_l	lumbar_extension	lumbar_bending	lumbar_rotation	arm_flex_r	arm_add_r	arm_rot_r	elbow_flex_r	pro_sup_r	wrist_flex_r	wrist_dev_r	arm_flex_l	arm_add_l	arm_rot_l	elbow_flex_l	pro_sup_l	wrist_flex_l	wrist_dev_l
      2.66000000	     12.93693849	      3.69823487	      4.76513465	      0.82061660	      0.86900798	      0.16729683	     17.24726953	     -5.05581177	    -35.93230252	     17.77971027	     -2.84562077	      0.31031448	     11.27151092	     38.04839966	     -7.50039739	    -29.59761403	      5.85783129	    -12.88477524	     16.42079267	     -7.17741086	      0.28659690	     29.96677559	     34.89650488	     -7.50039739	    -37.86306633	      1.18568095	     -6.77169553	     -0.65033996	    -11.49264101	     -1.35224495	     42.29910531	     90.00000001	      0.00000000	      0.00000000	     22.27770426	    -17.53870653	      0.01971126	     55.05549757	     90.00000001	      0.00000000	      0.00000000
      2.67000000	     12.89688879	      3.32325213	      5.03013794	      0.83536495	      0.86792573	      0.16791089	     17.03349844	     -4.25114216	    -36.37740410	     18.15291626	     -3.55131730	      0.31682816	     10.50574423	     38.26427359	     -7.50038931	    -29.61767620	      4.99905036	    -13.28234226	     18.24286250	     -7.40287261	      0.31839802	     29.07797231	     34.98393398	     -7.50038931	    -37.53365309	      1.75657712	     -6.67971870	     -0.70087773	    -11.50484088	     -1.58585094	     42.08889937	     90.00000001	      0.00000000	      0.00000000	     21.97330705	    -17.38038870	     -0.06963121	     55.56839173	     90.00000001	      0.00000000	      0.00000000
      2.68000000	     12.89322342	      2.97853734	      5.19881557	      0.85018954	      0.86712947	      0.16867389	     16.91081236	     -3.48327732	    -36.51630026	     18.91698749	     -4.46294438	      0.33016372	      9.78989733	     38.38543273	     -7.50037658	    -29.62413332	      4.19703948	    -13.61540798	     20.15606845	     -7.61394636	      0.35178976	     27.89000846	     35.15564890	     -7.50037658	    -37.25752568	      2.26165082	     -6.50889055	     -0.76487705	    -11.58822386	     -1.74304056	     41.89600195	     90.00000001	      0.00000000	      0.00000000	     21.64932794	    -17.20509142	     -0.23836370	     55.95151822	     90.00000001	      0.00000000	      0.00000000
      2.69000000	     12.90966334	      2.71703511	      5.23547993	      0.86487761	      0.86666249	      0.16943740	     16.96738758	     -2.91085319	    -36.30977569	     20.28099199	     -5.45465698	      0.35397009	      9.38576043	     38.34704173	     -7.50037378	    -29.62958244	      3.59811028	    -13.62941653	     22.05649444	     -7.82518615	      0.38495845	     26.44407767	     34.96546015	     -7.50037378	    -37.04316598	      2.64559477	     -6.26964903	     -0.75623564	    -11.72438328	     -1.78794826	     41.69685082	     90.00000001	      0.00000000	      0.00000000	     21.33570569	    -17.00211297	     -0.34112174	     56.17291805	     90.00000001	      0.00000000	      0.00000000
      2.70000000	     13.00620495	      2.25856700	      5.34042885	      0.88004488	      0.86653993	      0.17019690	     16.95074748	     -2.22594274	    -36.43171052	     21.88636523	     -6.54329973	      0.38198913	      9.42535939	     38.28755293	     -7.50036826	    -29.60130987	      2.74950310	    -13.85154897	     24.11601681	     -8.15773746	      0.42090390	     23.89813011	     34.59816967	     -7.50036826	    -36.84056069	      3.27417973	     -6.02472734	     -0.76284249	    -11.89763065	     -1.77815865	     41.54040504	     90.00000001	      0.00000000	      0.00000000	     20.72211058	    -16.77233309	     -0.57849975	     56.50974050	     90.00000001	      0.00000000	      0.00000000
